<!DOCTYPE svg PUBLIC "-//W3C//DTD SVG 1.1//EN" "http://www.w3.org/Graphics/SVG/1.1/DTD/svg11.dtd">
<!-- Uploaded to: SVG Repo, www.svgrepo.com, Transformed by: SVG Repo Mixer Tools -->
<svg width="124px" height="124px" viewBox="-10.2 -10.2 35.40 35.40" fill="none" xmlns="http://www.w3.org/2000/svg" stroke="#000000" stroke-width="0.09">
<g id="SVGRepo_bgCarrier" stroke-width="0" transform="translate(0,0), scale(1)">
<path transform="translate(-10.2, -10.2), scale(1.10625)" d="M16,31.777201964519918C18.34712254103416,32.096738794139696,18.575746434391533,27.603632763185804,20.696076854846474,26.547561309065635C22.686232762165965,25.5563257814832,26.03319457707217,27.997797281663974,27.28173247679752,26.15811754879477C28.639807018602102,24.15703915875702,25.102496788797872,21.49600005186607,25.712635362097124,19.155826531473583C26.270051171365363,17.017870051121886,30.16180074563762,16.698188167032868,30.3226806251677,14.49462560593723C30.4692658710741,12.486855828685831,27.589473940980497,11.616493891344016,26.38059962467667,10.006758012343202C25.315850680170335,8.588939340059225,25.012682323863608,6.61111882554326,23.59881345723822,5.541130540424264C22.1819292548835,4.468860308243382,20.2353437516039,4.588522565939204,18.535805816917716,4.069971601938336C16.69535035229076,3.5084248803824005,15.00684117021801,2.112267442981059,13.095734608794656,2.3365055946190942C11.186990501812561,2.5604665495649455,9.558874510047405,3.909978827873137,8.212381232135126,5.281262324388786C6.939815065187898,6.577257641695225,6.429141234685338,8.378606312344804,5.584137092868124,9.986398746725166C4.766803505032758,11.541542318046165,3.961404528708463,13.043276886446217,3.2815179701552495,14.66323367251291C2.4200394948039152,16.715867137080153,0.6676877858816853,18.669750541823333,1.0170897036955395,20.868242662160128C1.3564896090560141,23.003800538449706,3.0611591774357017,25.024836796581777,5.059540691645179,25.85083380771862C7.177523064524149,26.72626579965765,9.825561642742736,24.250414690642504,11.840678513583818,25.34198901298067C14.111283265919438,26.571959284032026,13.4412643717599,31.428856168257074,16,31.777201964519918" fill="#0eff0a" strokewidth="0"/>
</g>
<g id="SVGRepo_tracerCarrier" stroke-linecap="round" stroke-linejoin="round" stroke="#CCCCCC" stroke-width="0.03"/>
<g id="SVGRepo_iconCarrier"> <path d="M11 11H10V10H11V11Z" fill="#ffffff"/> <path d="M8 11H9V10H8V11Z" fill="#ffffff"/> <path d="M13 11H12V10H13V11Z" fill="#ffffff"/> <path fill-rule="evenodd" clip-rule="evenodd" d="M3 6V3.5C3 1.567 4.567 0 6.5 0C8.433 0 10 1.567 10 3.5V6H11.5C12.3284 6 13 6.67157 13 7.5V8.05001C14.1411 8.28164 15 9.29052 15 10.5C15 11.7095 14.1411 12.7184 13 12.95V13.5C13 14.3284 12.3284 15 11.5 15H1.5C0.671573 15 0 14.3284 0 13.5V7.5C0 6.67157 0.671573 6 1.5 6H3ZM4 3.5C4 2.11929 5.11929 1 6.5 1C7.88071 1 9 2.11929 9 3.5V6H4V3.5ZM8.5 9C7.67157 9 7 9.67157 7 10.5C7 11.3284 7.67157 12 8.5 12H12.5C13.3284 12 14 11.3284 14 10.5C14 9.67157 13.3284 9 12.5 9H8.5Z" fill="#ffffff"/> </g>
</svg>